<svg width="32" height="32" viewBox="0 0 32 32" fill="none" xmlns="http://www.w3.org/2000/svg">
  <!-- Background -->
  <rect width="32" height="32" rx="4" fill="#08090e"/>

  <!-- Antenna -->
  <rect x="15" y="1" width="2" height="4" fill="#4df0d8"/>
  <rect x="14" y="1" width="4" height="2" fill="#4df0d8"/>
  <rect x="15" y="0" width="2" height="1" fill="#9b6dff"/>

  <!-- Head outer border -->
  <rect x="7"  y="6"  width="18" height="13" fill="#4d7fff"/>
  <!-- Head inner fill -->
  <rect x="8"  y="7"  width="16" height="11" fill="#0d1a3d"/>

  <!-- Visor strip -->
  <rect x="8"  y="11" width="16" height="5"  fill="#06112b"/>

  <!-- Left eye -->
  <rect x="9"  y="12" width="5"  height="3"  fill="#4df0d8"/>
  <rect x="10" y="12" width="3"  height="3"  fill="#a0fff5"/>

  <!-- Right eye -->
  <rect x="18" y="12" width="5"  height="3"  fill="#4df0d8"/>
  <rect x="19" y="12" width="3"  height="3"  fill="#a0fff5"/>

  <!-- Neck -->
  <rect x="13" y="19" width="6"  height="2"  fill="#4d7fff"/>
  <rect x="14" y="19" width="4"  height="2"  fill="#0d1a3d"/>

  <!-- Body outer border -->
  <rect x="8"  y="21" width="16" height="9"  fill="#4d7fff"/>
  <!-- Body inner fill -->
  <rect x="9"  y="22" width="14" height="7"  fill="#0d1a3d"/>

  <!-- Body center badge (cyan) -->
  <rect x="12" y="24" width="8"  height="2"  fill="#4df0d8"/>
  <rect x="13" y="24" width="6"  height="2"  fill="#a0fff5"/>

  <!-- Body shoulder accents -->
  <rect x="9"  y="22" width="4"  height="2"  fill="#1a2a6e"/>
  <rect x="19" y="22" width="4"  height="2"  fill="#1a2a6e"/>
</svg>
